<svg width="800" height="800" viewBox="0 0 800 800" fill="none" xmlns="http://www.w3.org/2000/svg">
<path d="M352.513 76.7765C401.672 27.6174 468.346 0 537.87 0C682.64 0 800 117.36 800 262.132C800 331.654 772.385 398.328 723.225 447.487L620.71 550L550 479.289L652.515 376.777C682.92 346.371 700 305.132 700 262.132C700 172.589 627.41 100 537.87 100C494.868 100 453.629 117.081 423.223 147.487L320.71 250L250 179.289L352.513 76.7765Z" fill="#818CF8"/>
<path d="M376.777 652.515L479.289 550L550 620.71L447.487 723.225C398.328 772.385 331.654 800 262.132 800C117.36 800 0 682.64 0 537.87C0 468.346 27.6173 401.672 76.7765 352.513L179.289 250L250 320.71L147.487 423.223C117.081 453.629 100 494.868 100 537.87C100 627.41 172.589 700 262.132 700C305.132 700 346.371 682.92 376.777 652.515Z" fill="#818CF8"/>
<path d="M285.356 585.355L585.355 285.356L514.645 214.645L214.645 514.645L285.356 585.355Z" fill="#818CF8"/>
</svg>
